<?xml version="1.0" encoding="iso-8859-1"?>
<!-- Generator: Adobe Illustrator 19.0.0, SVG Export Plug-In . SVG Version: 6.00 Build 0)  -->
<svg version="1.1" id="Capa_1" xmlns="http://www.w3.org/2000/svg" xmlns:xlink="http://www.w3.org/1999/xlink" x="0px" y="0px"
	 viewBox="0 0 450.56 450.56" style="enable-background:new 0 0 450.56 450.56;" xml:space="preserve">
<path style="fill:#A4ABB1;" d="M363.197,120.32v-5.12c0-16.896-13.824-30.72-30.72-30.72h-34.56c-16.896,0-30.72,13.824-30.72,30.72
	v5.12H363.197z"/>
<path style="fill:#DADEE0;" d="M394.24,120.32H204.8v286.72h220.16v-256C424.96,134.144,411.136,120.32,394.24,120.32z"/>
<polygon style="fill:#C7CED2;" points="205.015,120.32 204.8,120.32 204.8,407.04 424.96,407.04 424.96,339.845 "/>
<path style="fill:#7D8790;" d="M442.88,407.04H7.68c-4.244,0-7.68,3.441-7.68,7.68c0,4.239,3.436,7.68,7.68,7.68h435.2
	c4.244,0,7.68-3.441,7.68-7.68C450.56,410.481,447.124,407.04,442.88,407.04z"/>
<path style="fill:#1BB7EA;" d="M204.8,407.04V58.88c0-16.896-13.824-30.72-30.72-30.72H56.32c-16.896,0-30.72,13.824-30.72,30.72
	v348.16H204.8z"/>
<g>
	<path style="fill:#1F4254;" d="M76.8,353.28h76.8c4.244,0,7.68-3.441,7.68-7.68c0-4.245-3.436-7.68-7.68-7.68H76.8
		c-4.244,0-7.68,3.436-7.68,7.68C69.12,349.839,72.556,353.28,76.8,353.28"/>
	<path style="fill:#1F4254;" d="M76.8,302.08h76.8c4.244,0,7.68-3.441,7.68-7.68c0-4.244-3.436-7.68-7.68-7.68H76.8
		c-4.244,0-7.68,3.436-7.68,7.68C69.12,298.639,72.556,302.08,76.8,302.08"/>
	<path style="fill:#1F4254;" d="M76.8,250.88h76.8c4.244,0,7.68-3.441,7.68-7.68c0-4.244-3.436-7.68-7.68-7.68H76.8
		c-4.244,0-7.68,3.436-7.68,7.68C69.12,247.439,72.556,250.88,76.8,250.88"/>
	<path style="fill:#1F4254;" d="M76.8,199.68h76.8c4.244,0,7.68-3.441,7.68-7.68c0-4.244-3.436-7.68-7.68-7.68H76.8
		c-4.244,0-7.68,3.436-7.68,7.68C69.12,196.239,72.556,199.68,76.8,199.68"/>
	<path style="fill:#1F4254;" d="M76.8,148.48h76.8c4.244,0,7.68-3.441,7.68-7.68c0-4.244-3.436-7.68-7.68-7.68H76.8
		c-4.244,0-7.68,3.436-7.68,7.68C69.12,145.039,72.556,148.48,76.8,148.48"/>
	<path style="fill:#1F4254;" d="M76.8,97.28h76.8c4.244,0,7.68-3.441,7.68-7.68c0-4.244-3.436-7.68-7.68-7.68H76.8
		c-4.244,0-7.68,3.436-7.68,7.68C69.12,93.839,72.556,97.28,76.8,97.28"/>
	<path style="fill:#1F4254;" d="M245.76,353.28h35.84c4.244,0,7.68-3.441,7.68-7.68c0-4.245-3.436-7.68-7.68-7.68h-35.84
		c-4.244,0-7.68,3.436-7.68,7.68C238.08,349.839,241.516,353.28,245.76,353.28"/>
	<path style="fill:#1F4254;" d="M245.76,302.08h35.84c4.244,0,7.68-3.441,7.68-7.68c0-4.244-3.436-7.68-7.68-7.68h-35.84
		c-4.244,0-7.68,3.436-7.68,7.68C238.08,298.639,241.516,302.08,245.76,302.08"/>
	<path style="fill:#1F4254;" d="M245.76,250.88h35.84c4.244,0,7.68-3.441,7.68-7.68c0-4.244-3.436-7.68-7.68-7.68h-35.84
		c-4.244,0-7.68,3.436-7.68,7.68C238.08,247.439,241.516,250.88,245.76,250.88"/>
	<path style="fill:#1F4254;" d="M245.76,199.68h35.84c4.244,0,7.68-3.441,7.68-7.68c0-4.244-3.436-7.68-7.68-7.68h-35.84
		c-4.244,0-7.68,3.436-7.68,7.68C238.08,196.239,241.516,199.68,245.76,199.68"/>
	<path style="fill:#1F4254;" d="M327.68,353.28h35.84c4.245,0,7.68-3.441,7.68-7.68c0-4.245-3.435-7.68-7.68-7.68h-35.84
		c-4.245,0-7.68,3.436-7.68,7.68C320,349.839,323.435,353.28,327.68,353.28"/>
	<path style="fill:#1F4254;" d="M327.68,302.08h35.84c4.245,0,7.68-3.441,7.68-7.68c0-4.244-3.435-7.68-7.68-7.68h-35.84
		c-4.245,0-7.68,3.436-7.68,7.68C320,298.639,323.435,302.08,327.68,302.08"/>
	<path style="fill:#1F4254;" d="M327.68,250.88h35.84c4.245,0,7.68-3.441,7.68-7.68c0-4.244-3.435-7.68-7.68-7.68h-35.84
		c-4.245,0-7.68,3.436-7.68,7.68C320,247.439,323.435,250.88,327.68,250.88"/>
	<path style="fill:#1F4254;" d="M327.68,199.68h35.84c4.245,0,7.68-3.441,7.68-7.68c0-4.244-3.435-7.68-7.68-7.68h-35.84
		c-4.245,0-7.68,3.436-7.68,7.68C320,196.239,323.435,199.68,327.68,199.68"/>
</g>
<g>
</g>
<g>
</g>
<g>
</g>
<g>
</g>
<g>
</g>
<g>
</g>
<g>
</g>
<g>
</g>
<g>
</g>
<g>
</g>
<g>
</g>
<g>
</g>
<g>
</g>
<g>
</g>
<g>
</g>
</svg>
