<?xml version="1.0" encoding="iso-8859-1"?>
<!-- Generator: Adobe Illustrator 19.0.0, SVG Export Plug-In . SVG Version: 6.00 Build 0)  -->
<svg version="1.1" id="Capa_1" xmlns="http://www.w3.org/2000/svg" xmlns:xlink="http://www.w3.org/1999/xlink" x="0px" y="0px"
	 viewBox="0 0 424.96 424.96" style="enable-background:new 0 0 424.96 424.96;" xml:space="preserve">
<path style="fill:#1BB7EA;" d="M70.845,397.891c-7.992,14.889-0.701,27.069,16.195,27.069h250.88
	c16.896,0,24.187-12.18,16.195-27.069l-83.589-155.786c-7.24-13.486-13.23-36.029-14.3-52.726h-87.491
	c-1.07,16.696-7.06,39.24-14.3,52.726L70.845,397.891z"/>
<g>
	<path style="fill:#1F4254;" d="M127.836,350.72h40.96c4.239,0,7.68-3.441,7.68-7.68c0-4.244-3.441-7.68-7.68-7.68h-40.96
		c-4.244,0-7.68,3.436-7.68,7.68C120.156,347.279,123.592,350.72,127.836,350.72"/>
	<path style="fill:#1F4254;" d="M148.316,314.88h35.84c4.239,0,7.68-3.441,7.68-7.68c0-4.244-3.441-7.68-7.68-7.68h-35.84
		c-4.244,0-7.68,3.436-7.68,7.68C140.636,311.439,144.072,314.88,148.316,314.88"/>
	<path style="fill:#1F4254;" d="M163.676,279.04h35.84c4.239,0,7.68-3.441,7.68-7.68c0-4.244-3.441-7.68-7.68-7.68h-35.84
		c-4.244,0-7.68,3.436-7.68,7.68C155.996,275.599,159.432,279.04,163.676,279.04"/>
</g>
<g>
	<circle style="fill:#C5CED3;" cx="226.319" cy="51.139" r="25.6"/>
	<circle style="fill:#C5CED3;" cx="277.519" cy="20.48" r="20.48"/>
</g>
<path style="fill:#DADEE0;" d="M256,117.699h25.436v-30.72h-138.24v30.72h25.764v66.616c0,1.592-0.108,3.328-0.225,5.064h87.491
	c-0.108-1.736-0.225-3.476-0.225-5.064V117.699z"/>
<g>
</g>
<g>
</g>
<g>
</g>
<g>
</g>
<g>
</g>
<g>
</g>
<g>
</g>
<g>
</g>
<g>
</g>
<g>
</g>
<g>
</g>
<g>
</g>
<g>
</g>
<g>
</g>
<g>
</g>
</svg>
