<?xml version="1.0" encoding="iso-8859-1"?>
<!-- Generator: Adobe Illustrator 19.0.0, SVG Export Plug-In . SVG Version: 6.00 Build 0)  -->
<svg version="1.1" id="Capa_1" xmlns="http://www.w3.org/2000/svg" xmlns:xlink="http://www.w3.org/1999/xlink" x="0px" y="0px"
	 viewBox="0 0 458.802 458.802" style="enable-background:new 0 0 458.802 458.802;" xml:space="preserve">
<g>
	<path style="fill:#1BB7EA;" d="M312.192,244.732l-4.337-23.951c-1.388-5.458-7.096-10.46-12.692-11.116
		c0,0-14.264-1.664-20.296-12.887c-6.042-11.228,0.435-24.033,0.435-24.033c2.54-5.023,1.654-12.667-1.971-16.973
		c0,0-2.985-3.548-8.484-8.801c-5.489-5.258-9.165-8.079-9.165-8.079c-4.465-3.43-12.134-3.978-17.044-1.219
		c0,0-12.508,7.04-23.992,1.51c-11.484-5.53-13.768-19.702-13.768-19.702c-0.896-5.56-6.139-11.049-11.653-12.196l-24.131-3.267
		c-5.622-0.348-12.145,3.548-14.5,8.668c0,0-5.99,13.01-18.514,15.288c-12.544,2.278-22.728-7.859-22.728-7.859
		c-3.988-3.968-11.459-5.34-16.599-3.041l-21.437,11.581c-4.756,3.011-7.747,9.994-6.636,15.519c0,0,2.821,14.049-5.985,23.26
		c-8.806,9.201-22.968,7.009-22.968,7.009c-5.565-0.86-12.411,2.432-15.206,7.322L9.902,203.69
		c-2.068,5.233-0.374,12.646,3.768,16.456c0,0,10.568,9.718,8.852,22.359c-1.715,12.611-14.444,19.164-14.444,19.164
		c-5.012,2.575-8.617,9.272-8.013,14.868l4.337,23.967c1.388,5.458,7.101,10.46,12.692,11.11c0,0,14.254,1.649,20.28,12.882
		c6.036,11.218-0.43,24.018-0.43,24.018c-2.54,5.028-1.649,12.672,1.976,16.978c0,0,2.985,3.548,8.479,8.812
		c5.489,5.238,9.17,8.069,9.17,8.069c4.465,3.425,12.14,3.973,17.044,1.213c0,0,12.503-7.025,23.987-1.495
		c11.479,5.519,13.768,19.697,13.768,19.697c0.901,5.555,6.144,11.044,11.658,12.191l24.131,3.267
		c5.622,0.348,12.145-3.553,14.5-8.668c0,0,5.98-13.01,18.504-15.268c12.539-2.278,22.723,7.839,22.723,7.839
		c3.988,3.968,11.464,5.34,16.604,3.041l21.437-11.581c4.756-3.011,7.747-9.989,6.636-15.508c0,0-2.821-14.06,5.985-23.26
		c8.806-9.211,22.973-7.014,22.973-7.014c5.565,0.865,12.411-2.432,15.212-7.322l10.614-21.919
		c2.068-5.233,0.374-12.646-3.768-16.456c0,0-10.568-9.718-8.858-22.359c1.72-12.621,14.454-19.169,14.454-19.169
		C309.181,257.025,312.791,250.334,312.192,244.732z M208.901,311.113c-27.873,29.148-74.112,30.182-103.25,2.299
		c-29.143-27.878-30.177-74.112-2.294-103.25c27.878-29.148,74.112-30.182,103.25-2.299S236.784,281.975,208.901,311.113z"/>
	<path style="fill:#DADEE0;" d="M454.763,131.724c0,0-11.116-6.671-13.399-15.898c-2.299-9.242,4.408-20.321,4.408-20.321
		c1.454-2.412,1.428-6.339-0.061-8.724L434.959,72.25c-1.838-2.135-5.581-3.313-8.31-2.637c0,0-12.559,3.149-20.71-1.772
		c-8.166-4.91-11.249-17.485-11.249-17.485c-0.671-2.734-3.466-5.484-6.211-6.103l-17.879-2.703c-2.806-0.2-6.292,1.613-7.741,4.029
		c0,0-6.651,11.095-15.892,13.394c-9.242,2.299-20.321-4.398-20.321-4.398c-2.412-1.459-6.333-1.428-8.719,0.061L303.39,65.389
		c-2.135,1.838-3.318,5.581-2.637,8.31c0,0,3.149,12.549-1.761,20.7c-4.92,8.151-17.485,11.249-17.485,11.249
		c-2.734,0.676-5.478,3.476-6.103,6.221l-2.698,17.869c-0.2,2.811,1.608,6.292,4.024,7.741c0,0,11.1,6.661,13.384,15.892
		c2.299,9.231-4.408,20.311-4.408,20.311c-1.454,2.412-1.428,6.333,0.067,8.724l10.752,14.525c1.833,2.14,5.576,3.323,8.305,2.642
		c0,0,12.564-3.128,20.716,1.772c8.151,4.91,11.243,17.49,11.243,17.49c0.676,2.734,3.471,5.478,6.221,6.108l17.859,2.688
		c2.811,0.2,6.292-1.608,7.752-4.024c0,0,6.661-11.085,15.892-13.384c9.236-2.299,20.321,4.408,20.321,4.408
		c2.412,1.459,6.333,1.428,8.719-0.061l14.531-10.742c2.135-1.833,3.318-5.571,2.642-8.305c0,0-3.139-12.575,1.761-20.726
		c4.92-8.161,17.5-11.249,17.5-11.249c2.729-0.671,5.478-3.471,6.103-6.216l2.698-17.864
		C458.987,136.654,457.175,133.173,454.763,131.724z M396.907,153.351c-10.373,17.198-32.712,22.758-49.915,12.39
		c-17.203-10.358-22.748-32.712-12.401-49.91c10.368-17.208,32.722-22.748,49.92-12.401
		C401.71,113.804,407.255,136.152,396.907,153.351z"/>
</g>
<g>
</g>
<g>
</g>
<g>
</g>
<g>
</g>
<g>
</g>
<g>
</g>
<g>
</g>
<g>
</g>
<g>
</g>
<g>
</g>
<g>
</g>
<g>
</g>
<g>
</g>
<g>
</g>
<g>
</g>
</svg>
